<?xml version="1.0" standalone="no"?>
<!DOCTYPE svg PUBLIC "-//W3C//DTD SVG 1.1//EN" 
"http://www.w3.org/Graphics/SVG/1.1/DTD/svg11.dtd">
<!-- 
M = moveto
L = lineto
H = horizontal lineto
V = vertical lineto
C = curveto
S = smooth curveto 第一条线在C的基礎上对称
Q = quadratic Bézier curve
T = smooth quadratic Bézier curveto
A = elliptical Arc
Z = closepath

注意：以上所有命令均允许小写字母。大写表示绝对定位，小写表示相对定位。 -->

<svg width="1000px" height="1000px" version="1.1" xmlns="http://www.w3.org/2000/svg">

    <!-- h,v -->
    <path d="M10 10 H 90 V 90 H 10 Z" fill="transparent" stroke="black" stroke-width="10px"/>
    <path d="M50 50 h 80 v 80 h -80 Z" fill="transparent" stroke="red" stroke-width="10px"/>

    <!-- c,s -->
    <path d="M200 110 C 190 140, 250 140, 240 110 S 280 150, 300 80" stroke="black" fill="transparent"/>
    <circle cx="200" cy="110" r="2" fill="red"/>
    <circle cx="190" cy="140" r="2" fill="red"/>
    <line x1="200" y1="110" x2="190" y2="140" style="stroke:rgb(255,0,0);stroke-width:2"/>
    <circle cx="250" cy="140" r="2" fill="red"/>
    <circle cx="240" cy="110" r="2" fill="red"/>
    <line x1="250" y1="140" x2="240" y2="110" style="stroke:rgb(255,0,0);stroke-width:2"/>

    <!-- q -->
    <path d="M10 280 Q 95 210 180 280 T 350 280" stroke="black" fill="transparent"/>
    <circle cx="10" cy="280" r="2" fill="red"/>
    <circle cx="95" cy="210" r="2" fill="red"/>
    <circle cx="180" cy="280" r="2" fill="red"/>
    <line x1="10" y1="280" x2="95" y2="210" style="stroke:rgb(255,0,0);stroke-width:1"/>
    <line x1="95" y1="210" x2="180" y2="280" style="stroke:rgb(255,0,0);stroke-width:1"/>

    <!-- a -->
    <path d="M10 315
           L 110 215
           A 30 50 0 0 1 182.55 162.45
           L 172.55 152.45
           A 30 50 -45 0 1 215.1 109.9
           L 315 10" stroke="black" fill="green" stroke-width="2" fill-opacity="0.5"/>
    <circle cx="162.55" cy="162.55" r="2" fill="red"/>
</svg>